<svg xmlns="http://www.w3.org/2000/svg" width="982" height="1215" fill="none" viewBox="0 0 982 1215">
    <path fill="#F5F5F5" stroke="#F5F5F5" stroke-width="23.049" d="M495.406 428.564h153.627a13.388 13.388 0 0 1 13.419 13.42 13.388 13.388 0 0 1-13.419 13.418h-63.386v151.155c0 7.435-6 13.419-13.435 13.419a13.388 13.388 0 0 1-13.419-13.419V455.402h-63.387c-7.435 0-13.435-5.983-13.435-13.418 0-7.436 6-13.42 13.435-13.42Z"/>
    <path fill="#F5F5F5" stroke="#F5F5F5" stroke-linecap="round" stroke-linejoin="round" stroke-width="23.049" d="M570.032 73.002c-80.8-.399-157.666 47.241-190.988 124.431-3.735 8.186-7.905 19.132-11.126 32.678-.395 1.408-.682 2.382-.895 3.012-.838.299-1.741.515-3.968.954-7.493 1.459-14.802 3.332-21.975 5.449-26.091 7.704-50.005 19.576-71.177 34.792-82.23 59.1-123.31 167.899-91.591 272.544 2.028 6.687 2.448 9.162 2.588 9.336-.2.299-.1.043-.4.449-1.803 2.203-3.432 4.486-5.14 6.734-7.882 10.362-14.837 21.097-20.69 32.206-67.452 128.02-2.413 298.458 143.868 345.705 8.382 2.708 11.515 4.127 11.922 4.442.405.349 1.319 1.568 4.555 7.921 64.008 125.725 209.4 183.495 343.395 141.155 56.098-17.73 83.94-45.64 95.283-86.5 8.259-29.761 9.23-65.738 10.703-111.455 2.713-11.124 3.178-34.913 3.595-80.481.864-94.511.538-92.536 20.803-123.829 85.005-131.248 38.448-304.143-100.553-373.42-174.608-87.024-374.09 39.662-374.104 237.589-.002 28.299-2.848 38.463-26.204 93.542-25.839 60.935-23.6 69.377 21.731 81.619 22.547 6.091 19.56.3 27.911 54.115 9.463 61.027 9.038 58.956 13.679 67.665 12.425 23.311 20.715 25.939 83.247 26.415 69.895.514 82.938-2.588 105.237-25.164 20.974-21.228 32.041-58.198 20.787-69.451-7.856-7.858-22.056-1.874-22.056 9.303 0 26.003-18.985 50.068-44.941 56.977-8.797 2.338-98.028 2.623-105.676.349-6.302-1.888-14.687-10.779-15.615-16.559-.385-2.343-4.206-26.628-8.507-53.968-8.056-51.199-8.867-54.407-15.647-61.613-5.648-6.004-8.947-7.459-30.644-13.452-23.909-6.607-23.473-2.203-4.75-46.291 25.084-59.066 26.508-64.407 28.204-106.799 4.303-107.477 60.049-188.047 153.09-221.258 209.146-74.655 393.148 157.82 273.032 344.956-24.902 38.796-24.969 39.148-25.553 136.841-.23 37.79-.275 57.108.24 68.853-1.965 52.339-2.619 91.667-10.313 119.386-9.672 34.85-27.861 54.06-79.928 70.51-118.389 37.41-245.378-9.69-307.676-115.24a26.41 26.41 0 0 0-.716-1.259c.015.004.03.012.05.012 33.55 10.35 76.792 21.09 123.617 25.39 6.314.599 11.897-4.086 12.475-10.394.573-6.311-4.08-11.896-10.393-12.475-54.986-5.055-105.303-19.424-139.102-31.018-7.488-18.793-16.269-46.089-21.779-80.872-.979-6.258-6.835-10.541-13.094-9.58-6.285.97-10.586 6.86-9.597 13.141 4.186 26.42 10.314 48.865 16.461 67.096.041.1.08.3.116.399a218.701 218.701 0 0 1-16.396-6.378C169.505 861.21 119.516 721.738 171.943 613.058c.4-.669.705-1.359.959-2.093.15-.299.3-.599.45-.894.349-1.064 3.921-11.431 16.07-27.685 1.955-2.613 4.531-5.518 6.913-8.328 13.207-15.585 32.862-33.573 62.866-49.398 5.627-2.958 7.778-9.932 4.798-15.55a11.47 11.47 0 0 0-6.766-5.592 10.886 10.886 0 0 0-3.335-.515 11.578 11.578 0 0 0-5.4 1.323c-19.838 10.463-35.83 21.998-48.731 33.393-36.121-124.203 39.774-253.356 163.727-279.944a182.892 182.892 0 0 0 .59 35.865c.733 6.292 6.424 10.806 12.719 10.085 6.295-.734 10.806-6.419 10.085-12.72-1.565-13.617-1.214-26.007.066-37.199 25.5-3.142 55.831-3.487 91.59 1.729 6.286.934 12.13-3.422 13.045-9.71.916-6.285-3.441-12.121-9.727-13.028-34.161-4.986-64.033-5.175-89.85-2.668 3.1-11.128 7.238-21.625 12.118-31.588a181.237 181.237 0 0 1 3.839-7.384c45.936-83.807 152.21-120.774 242.582-75.536 51.499 25.779 92.169 43.968 118.526 64.427 26.357 20.459 39.167 41.362 39.167 79.489 0 25.067-.862-.515-.862 97.739-.012 6.419 5.193 11.628 11.613 11.613 6.401-.012 11.579-5.215 11.565-11.613 0-98.136.862-72.162.862-97.739 0-43.929-18.067-74.473-48.145-97.819-30.079-23.347-71.433-41.308-122.398-66.82-29.423-14.727-60.402-21.687-90.858-21.828l.011-.067Z"/>
</svg>
